<svg width="1440" height="1033" viewBox="0 0 1440 1033" fill="none" xmlns="http://www.w3.org/2000/svg">
<g filter="url(#filter0_f_3_3)">
<path d="M911.808 885.745C900.955 774.855 729.747 654.099 790.442 578.82C837.316 520.683 869.375 496.162 840.158 436.787C803.127 361.533 857.21 303.659 932.312 304.101C1010.88 304.562 1021.57 373.176 1196.97 292.617C1309.09 241.119 1339.28 45.7116 1445.62 170.207C1473.09 202.368 1536.74 362.996 1560.23 354.649L1480.34 937.687L916.455 935.725C916.56 937.425 916.474 937.259 916.25 935.725L916.455 935.725C916.207 931.704 914.89 917.24 911.808 885.745Z" fill="url(#paint0_linear_3_3)" fill-opacity="0.59"/>
</g>
<path d="M1292.19 833.315C1253.77 843.417 1212.44 846.526 1176.62 846.193C1150.15 845.971 1123.43 844.527 1097.26 840.614C1081.41 838.255 1065.7 835.091 1050.21 831.15C1017.93 822.935 987.664 809.947 974.566 777.42C958.964 738.676 981.913 697.879 1016.2 677.147C1048.28 657.776 1087.49 655.861 1122.19 642.567C1151.3 631.41 1178.74 616.146 1203.31 597.329C1227.41 578.873 1253.39 562.526 1284.92 559.529C1373.3 551.175 1437.33 647.313 1417.77 725.327C1402.53 786.162 1350.74 817.884 1292.19 833.315Z" fill="#6988E7"/>
<path d="M1077.92 732.932C1077.92 732.932 1168 693.05 1240.59 725.244C1240.59 725.272 1175.63 700.71 1077.92 732.932Z" fill="#003C6D"/>
<path d="M1224.85 720.665C1224.85 720.665 1269.21 658.997 1332.94 666.962C1332.94 666.99 1277.77 663.687 1224.85 720.665Z" fill="#003C6D"/>
<path d="M1057.39 669.488C1038.57 715.364 1012.24 797.735 1009.51 810.169L1019.25 814.665C1019.25 814.665 1061.98 742.007 1087.96 687.777L1057.39 669.488Z" fill="#EFCAAC"/>
<path d="M1020.85 817.412C1020.41 814.998 1019.89 813.028 1020.93 810.696C1021.45 809.531 1021.32 808.643 1019.89 808.643C1018.87 808.643 1017.88 808.781 1016.89 808.92C1015.65 809.086 1012.7 806.145 1011.3 806.922C1009.24 808.087 1004.83 813.055 1002.94 814.471C1000.84 816.053 998.615 817.44 996.331 818.717C992.534 820.798 987.499 823.352 983.344 824.545C981.693 825.017 980.702 825.461 979.271 826.405C977.84 827.348 976.96 827.903 976.602 829.624C975.391 835.563 985.187 836.729 989.039 836.951C994.02 837.228 998.973 836.09 1003.51 834.037C1005.74 833.038 1007.89 831.789 1009.92 830.429C1011.82 829.124 1013.64 827.071 1015.98 826.627C1016.83 826.46 1017.77 826.488 1018.54 826.072C1021.07 824.712 1021.29 820.549 1020.93 818.051C1020.9 817.801 1020.88 817.607 1020.85 817.412Z" fill="#EFCAAC"/>
<path d="M965.678 829.097C964.385 829.43 963.119 829.763 961.798 830.068C959.377 830.623 956.956 831.955 956.598 834.675C956.213 837.645 960.725 839.143 962.844 840.031C965.816 841.28 968.98 842.085 972.172 842.418C976.217 842.862 983.013 843.417 986.976 842.39C990.993 841.364 992.837 839.449 996.909 838.699C1000.46 838.061 1002.99 836.812 1006.57 836.479C1009.46 836.229 1012.73 836.09 1015.1 834.286C1016.42 833.287 1017.85 832.483 1018.62 830.984C1019.28 829.707 1019.66 828.264 1019.97 826.876C1020.11 826.294 1021.48 819.105 1020.9 818.994C1019.47 819.383 1018.07 819.855 1016.67 820.41C1014.24 821.409 1012.02 822.797 1009.68 823.99C1005.11 826.266 1000.13 827.626 995.093 828.347C991.764 828.847 988.214 829.319 984.885 828.791C983.536 828.569 981.995 828.098 981.17 826.904C980.454 825.905 982.793 825.516 983.289 824.462C980.564 825.35 977.648 825.877 974.869 826.571C971.842 827.376 968.76 828.292 965.678 829.097Z" fill="#DCC37E"/>
<path d="M1212.42 524.948C1212.42 524.948 1198.41 521.674 1186.28 534.523C1174.14 547.401 1125.11 628.135 1125.11 628.135L1154.63 641.151L1212.42 524.948Z" fill="#EFCAAC"/>
<path d="M1066.86 678.174C1057.5 726.937 1043.16 812.528 1042.92 825.267L1055.46 823.324C1055.46 823.324 1085.7 748.335 1100.4 689.969L1066.86 678.174Z" fill="#EFCAAC"/>
<path d="M1233.14 663.659L1163.77 636.988L1157.38 650.143C1157.38 650.143 1066.25 659.718 1052.33 661.467C1046.8 662.161 1030.89 676.62 1013.31 694.465C1016.69 696.353 1019.86 698.712 1022.75 701.432C1028.47 706.816 1033.2 713.116 1038.13 719.221C1043.25 725.549 1048.61 731.599 1055.24 736.345C1061.32 740.702 1084.88 746.614 1091.95 748.751C1105.43 726.687 1115.45 719.61 1115.45 719.61C1115.45 719.61 1191.61 737.261 1212.42 721.997C1233.22 706.732 1233.14 663.659 1233.14 663.659Z" fill="#DEBAD6"/>
<path d="M1163.19 663.104C1174.44 671.625 1187.76 677.314 1201.46 680.256C1209.22 681.921 1217.2 682.892 1225.13 682.754C1227.22 682.726 1229.34 682.587 1231.43 682.365C1233.14 671.847 1233.11 663.659 1233.11 663.659L1163.74 636.988L1157.36 650.143C1157.36 650.143 1155.13 650.366 1151.3 650.782C1154.3 655.666 1158.7 659.718 1163.19 663.104Z" fill="#8A3526"/>
<path d="M1164.4 660.495C1170.01 664.048 1176.2 666.573 1182.45 668.71C1189.03 670.958 1195.74 672.846 1202.54 674.206C1212.8 676.259 1223.61 676.981 1233.85 674.761C1236.46 659.247 1235.12 652.197 1238.34 638.404C1243.29 617.062 1265.77 552.757 1264.89 543.127V543.099C1263.07 540.685 1261.17 538.298 1259.08 536.105C1256.08 532.969 1252.73 530.249 1248.74 528.529C1243.81 526.392 1238.5 525.198 1233.27 524.282C1229.59 523.616 1225.9 523.2 1222.18 522.867C1220.29 522.7 1218.3 522.423 1216.41 522.534C1214.48 522.645 1212.64 523.255 1210.93 524.116C1207.46 525.864 1204.6 528.584 1201.82 531.276C1198.52 534.44 1195.08 537.437 1191.64 540.435C1186.72 544.709 1181.82 549.066 1177.22 553.701C1174.33 558.03 1171.64 562.499 1169.41 566.773C1166.41 572.573 1161.35 627.136 1156.53 654.168C1158.84 656.554 1161.51 658.692 1164.4 660.495Z" fill="#23221E"/>
<path d="M1167.56 499.332C1166.74 502.441 1164.65 504.8 1162.8 507.297C1161.07 509.629 1160.19 512.071 1160 514.985C1159.86 516.844 1159.72 519.204 1160.55 521.007C1160.99 520.758 1161.43 520.508 1161.87 520.286C1161.87 519.37 1162.17 518.399 1162.45 517.594C1162.89 516.317 1163.46 515.013 1164.1 513.819C1164.65 512.793 1165.34 511.932 1166.11 511.127C1165.34 513.459 1165.42 516.262 1165.69 518.759C1168.69 517.871 1171.86 517.594 1174.99 517.955C1179.64 518.51 1184.07 520.258 1188.31 522.201C1190.82 523.339 1193.29 524.393 1196.02 524.893C1198.33 525.337 1200.67 525.392 1203.01 525.17C1208.07 524.671 1212.75 522.811 1217.64 521.59C1222.95 520.258 1228.38 520.758 1233.69 521.757C1239.08 522.756 1244.5 524.171 1250.03 523.533C1252.26 523.256 1254.46 522.756 1256.61 522.09C1254.98 520.008 1253.39 517.816 1252.81 515.207C1252.4 513.459 1252.56 511.766 1252.86 510.1C1253.44 511.516 1254.32 512.848 1255.34 514.152C1256.99 516.289 1258.86 518.537 1259.3 521.202C1261.39 520.452 1263.43 519.564 1265.41 518.648C1266.15 518.315 1266.87 517.955 1267.61 517.594C1267.45 517.205 1267.31 516.817 1267.17 516.428C1266.84 515.485 1266.65 514.485 1266.51 513.486C1267.2 514.68 1267.97 515.873 1268.63 517.094C1270.7 516.067 1272.76 515.013 1274.82 514.041C1274.77 513.93 1274.69 513.819 1274.63 513.708C1273.36 511.627 1272.02 509.462 1271.71 506.992C1271.36 503.911 1272.98 501.33 1274.02 498.583C1273.89 499.915 1273.47 501.192 1273.25 502.579C1272.95 504.383 1273.25 506.187 1274 507.852C1274.57 509.157 1275.48 510.267 1276.14 511.516C1276.42 512.043 1276.69 512.57 1277 513.126C1278.07 512.682 1279.14 512.265 1280.24 511.904C1282.44 511.183 1284.65 510.683 1286.96 510.6C1289.13 510.489 1291.28 510.6 1293.45 510.656C1293.64 510.656 1293.84 510.655 1294 510.683C1293.92 509.767 1294.03 508.796 1294.11 507.936C1294.25 506.271 1294.17 504.772 1293.7 503.162C1292.71 499.693 1290.48 496.834 1288.64 493.809C1286.52 490.312 1285.53 486.593 1285.14 482.541C1284.78 478.628 1284.92 474.632 1283.71 470.83C1282.55 467.222 1280.44 464.058 1278.29 460.977C1275.9 457.536 1273.42 454.067 1271.63 450.264C1269.79 446.379 1269.32 442.216 1268.63 438.025C1268.05 434.473 1267.17 430.948 1265.74 427.645C1262.74 420.707 1257.49 415.545 1251.65 410.993C1251.43 410.827 1250.97 411.16 1251.19 411.354C1255.92 415.212 1260.24 419.736 1263.1 425.148C1258.78 420.985 1253.11 418.931 1247.09 418.265C1243.4 417.876 1239.68 417.876 1236 418.015C1232.25 418.154 1228.46 418.265 1224.72 418.598C1216.65 419.347 1208.7 421.068 1200.83 423.011C1193.65 424.787 1186.47 426.952 1179.92 430.421C1176.92 432.003 1173.21 433.834 1172.35 437.442C1172.16 438.303 1172.1 439.219 1172.19 440.134C1172.19 440.162 1172.16 440.19 1172.16 440.218C1172.27 443.493 1173.81 446.462 1174.09 449.709C1174.39 453.317 1173.98 456.648 1172.3 459.867C1169.71 464.779 1165.47 468.665 1163.55 473.91C1162.61 476.463 1162.5 479.156 1163.19 481.764C1163.96 484.651 1165.45 487.232 1166.57 489.979C1167.81 492.866 1168.42 496.113 1167.56 499.332Z" fill="#151413"/>
<path d="M1209.86 530.277C1207.22 534.385 1200.97 539.796 1207.22 544.292C1211.45 547.345 1218.63 545.68 1223.34 544.459C1229.12 542.988 1234.59 540.296 1239.27 536.605C1240.59 535.55 1241.91 534.385 1242.66 532.858C1244.44 529.167 1240.81 526.447 1240.87 522.839C1241.09 512.071 1240.98 500.72 1242.85 490.007C1243.04 488.869 1243.23 487.593 1243.78 486.538C1243.62 486.205 1243.4 485.9 1243.01 485.65C1241.75 484.9 1239.96 484.956 1238.56 485.15C1236.91 485.372 1235.28 485.816 1233.66 486.149C1229.75 486.926 1225.84 488.037 1222.18 489.591C1218.61 491.117 1215.47 493.337 1212.25 495.474C1211.18 496.196 1210.02 496.779 1209.06 497.639C1208.7 497.972 1208.26 498.389 1208.21 498.888C1208.12 499.582 1208.84 500.082 1209.17 500.609C1211.21 504.161 1211.65 509.323 1211.92 513.486C1212.22 518.093 1212.39 522.811 1211.18 527.307C1210.9 528.445 1210.43 529.417 1209.86 530.277Z" fill="#EFCAAC"/>
<path d="M1250.31 428.894C1244.77 419.403 1236.02 411.771 1225.62 408.274C1215.8 404.971 1204.66 405.498 1195.33 410.161C1186.63 414.518 1180.55 422.622 1177.5 431.808C1177.14 432.891 1176.84 433.973 1176.53 435.083C1176.07 436.221 1175.65 437.359 1175.35 438.58C1173.81 444.686 1175.19 450.958 1176.48 456.981C1177.2 460.256 1177.83 463.558 1177.91 466.944C1177.99 470.358 1177.53 473.716 1177.09 477.074C1176.29 483.235 1175.65 489.202 1178.05 495.086C1181.76 504.244 1189.27 512.487 1198.66 515.762C1208.15 519.092 1218.72 516.9 1227.71 512.959C1237.32 508.768 1245.85 501.885 1251.57 493.032C1257.65 483.596 1259.11 472.578 1258.67 461.504C1258.26 450.209 1256.03 438.719 1250.31 428.894Z" fill="#EFCAAC"/>
<path d="M1267.64 428.7C1261.89 417.071 1253.03 407.691 1240.84 403.084C1229.67 398.865 1217.23 398.504 1205.76 401.668C1195.36 404.527 1184.07 410.383 1177.55 419.514C1176.7 420.43 1175.9 421.373 1175.13 422.4C1172.99 424.62 1171.2 427.174 1169.77 429.838C1166.33 436.388 1165.06 443.937 1165.64 451.291C1165.8 453.234 1166.11 455.204 1166.55 457.092C1166.77 458.035 1166.88 459.284 1167.26 460.311C1172.46 459.367 1177.64 458.424 1182.84 457.536C1183.44 457.425 1184.05 457.314 1184.62 457.203C1183.94 452.401 1186.19 441.911 1186.19 442.799C1186.25 447.489 1187.07 452.096 1188.2 456.648C1188.5 456.592 1188.81 456.564 1189.14 456.509C1197.45 455.232 1205.87 454.316 1214.29 454.178C1213.21 449.931 1212.53 445.602 1211.92 441.272C1211.81 440.551 1216.35 449.598 1217.37 454.15C1220.73 454.178 1224.11 454.316 1227.47 454.649C1225.71 448.238 1225.13 445.13 1223.28 438.747C1223.04 437.942 1229.5 448.044 1231.24 455.093C1232.17 455.232 1233.08 455.371 1234.02 455.51C1237.02 456.009 1240.37 456.287 1242.63 458.535C1244.44 460.367 1245.27 462.975 1245.99 465.39C1246.12 465.806 1246.26 466.25 1246.37 466.667C1248.27 471.052 1249.37 475.742 1249.95 480.543C1250.09 481.653 1251.65 480.737 1251.63 479.905C1251.6 479.405 1251.52 478.933 1251.49 478.462C1251.49 476.352 1251.43 474.243 1251.32 472.134C1252.2 471.135 1252.86 469.525 1253.25 468.693C1254.13 466.667 1254.74 464.53 1255.34 462.393C1255.62 461.449 1256.96 462.143 1257.35 463.281C1258.51 466.667 1258.7 469.719 1258.23 473.3C1257.73 477.018 1256.85 480.765 1255.75 484.345C1255.15 486.344 1251.02 494.614 1249.18 496.029C1248.98 496.168 1248.68 496.668 1249.15 496.807C1252.67 497.833 1262.19 492.255 1264.17 489.952C1268.38 485.122 1271.19 480.682 1273.03 474.548C1277.19 460.672 1274 441.55 1267.64 428.7Z" fill="#151413"/>
<path d="M1265.25 464.53C1264.64 462.06 1262.74 459.367 1259.94 459.395C1256.5 459.451 1254.32 463.17 1253.28 466.056C1253.03 466.778 1252.67 467.693 1252.42 468.693C1251.87 469.858 1251.38 471.052 1251.02 472.3C1250.28 475.076 1250.14 478.073 1250 480.96C1249.89 483.18 1249.73 486.455 1252.12 487.509C1254.32 488.481 1256.63 487.065 1258.29 485.678C1262.17 482.43 1264.01 477.823 1265.03 472.939C1265.63 470.219 1265.93 467.277 1265.25 464.53Z" fill="#EFCAAC"/>
<path d="M1263.24 466.889C1262.61 465.695 1261.39 465.556 1260.27 466.139C1258.75 466.916 1257.73 468.471 1257.02 469.941C1256.22 471.523 1255.67 473.244 1255.26 474.993C1254.63 477.518 1254.43 480.377 1254.82 482.958C1254.9 483.457 1255.56 483.041 1255.56 482.68C1255.53 481.071 1255.53 479.489 1255.67 477.934C1255.86 477.907 1256.06 477.879 1256.22 477.823C1256.52 477.74 1256.8 477.574 1257.07 477.435C1257.65 477.102 1258.18 476.658 1258.64 476.186C1259.55 475.27 1260.24 474.215 1261.06 473.244C1261.26 473.022 1260.93 472.828 1260.76 473.022C1259.99 473.91 1259.25 474.798 1258.4 475.603C1257.98 475.992 1257.51 476.38 1257.02 476.658C1256.77 476.797 1256.52 476.908 1256.28 476.991C1256.11 477.046 1255.92 477.074 1255.75 477.13C1255.84 476.408 1255.97 475.686 1256.14 474.965C1256.61 473.105 1257.24 471.218 1258.2 469.525C1258.84 468.415 1260.43 466.028 1262.03 466.833C1263.24 467.444 1263.49 469.414 1263.35 470.608C1263.32 470.802 1263.57 470.691 1263.6 470.58C1263.84 469.414 1263.82 467.971 1263.24 466.889Z" fill="#EFCAAC"/>
<path d="M1188.56 643.483C1188.31 641.79 1187.87 640.097 1187.1 638.57C1186.33 637.099 1185.23 635.823 1183.96 634.768C1182.26 633.325 1180.39 632.076 1178.6 630.744C1176.78 629.384 1174.94 628.024 1173.07 626.692C1171.44 625.554 1169.85 624.305 1168.09 623.334C1167.43 622.973 1166.71 622.695 1165.97 622.64C1164.26 622.113 1162.53 621.641 1160.82 621.225C1158.54 620.669 1156.26 620.17 1153.94 619.809C1152.02 619.504 1150.09 619.254 1148.14 619.337C1146.18 619.421 1144.42 619.892 1142.63 620.642C1141.2 621.252 1139.66 621.558 1138.29 622.307C1137.76 622.584 1137.21 623.001 1137.05 623.611C1136.91 624.166 1137.21 624.638 1137.6 624.971C1138.07 625.36 1138.62 625.637 1139.22 625.832C1142.22 626.414 1145.36 625.693 1148.36 625.415C1149.32 625.332 1150.34 625.415 1151.3 625.526C1152.76 625.693 1154.19 625.97 1155.59 626.331C1156.56 626.581 1157.49 626.886 1158.43 627.219C1158.13 627.219 1157.8 627.192 1157.49 627.219C1155.95 627.247 1154.47 627.608 1152.95 627.83C1151.47 628.024 1150.04 628.218 1148.63 628.746C1148.63 628.746 1148.61 628.746 1148.61 628.773C1147.62 628.94 1146.65 629.19 1145.69 629.606C1143.93 630.328 1142.3 631.327 1140.74 632.409C1140.13 632.825 1139.53 633.214 1138.92 633.603C1137.93 634.047 1136.97 634.491 1136.03 634.99C1135.07 635.518 1134.02 636.211 1133.44 637.183C1132.76 638.321 1133.69 639.181 1134.74 639.569C1136.47 640.18 1138.09 639.431 1139.55 638.543C1141.45 637.405 1143.43 636.461 1145.52 635.684C1145.99 635.518 1146.49 635.379 1146.98 635.24C1149.93 633.908 1157.47 635.49 1156.48 635.573C1156.28 635.573 1156.12 635.573 1155.93 635.601C1155.79 635.601 1155.68 635.573 1155.57 635.545C1153.5 635.462 1151.47 635.517 1149.51 636.017C1149.35 636.128 1149.21 636.239 1149.05 636.35C1146.84 637.988 1144.48 639.347 1142.19 640.846C1141.01 641.595 1139.83 642.317 1138.64 643.039C1137.87 643.51 1133.36 646.064 1135.59 647.202C1136.22 647.507 1137.02 647.535 1137.71 647.535C1138.67 647.507 1139.61 647.285 1140.49 646.924C1142.44 646.175 1144.2 645.009 1145.94 643.844C1146.87 643.205 1147.78 642.511 1148.8 642.012C1150.09 641.373 1151.52 641.179 1152.95 641.151C1155.21 641.124 1157.41 641.484 1159.58 642.012C1158.79 642.04 1157.99 642.04 1157.16 642.095C1153.67 642.289 1151.16 643.955 1148.25 645.703C1146.87 646.536 1145.25 646.952 1143.9 647.84C1143.1 648.367 1142.17 649.339 1142.69 650.393C1143.05 651.17 1144.07 651.254 1144.81 651.198C1147.31 651.004 1149.49 649.672 1151.77 648.756C1154.41 647.701 1157.25 647.451 1160.02 647.063C1163.19 646.619 1165.25 648.062 1167.98 649.422C1169.3 650.088 1170.67 650.699 1172.05 651.281C1174.86 652.419 1177.75 653.418 1180.69 654.057C1181.82 654.306 1183 654.39 1184.13 654.029C1184.98 653.751 1185.7 653.28 1186.28 652.641C1188.7 650.393 1189 646.48 1188.56 643.483Z" fill="#EFCAAC"/>
<path d="M1277.24 642.595C1277.79 638.57 1277.68 634.491 1277.49 630.411C1277.02 620.114 1277.11 609.846 1276.53 599.549C1275.68 584.007 1276.12 565.468 1269.68 550.648C1268 546.763 1265.52 542.877 1262.28 540.129C1261.86 539.852 1261.45 539.602 1261.04 539.352C1259.39 538.409 1257.65 538.131 1255.86 538.659C1254.82 538.964 1253.83 539.491 1252.89 540.018C1251.76 540.657 1250.75 541.489 1249.87 542.405C1248.02 544.32 1246.65 546.624 1245.55 549.038C1243.48 553.618 1242.22 558.558 1241.8 563.609C1241.47 568.022 1241.67 572.434 1242.05 576.847C1244.22 584.923 1246.59 593 1247.53 601.298C1248.16 606.959 1248.96 612.649 1249.51 618.31C1250.03 623.639 1250.36 628.968 1250.44 634.296C1250.5 638.709 1250.5 643.344 1252.01 647.59C1252.75 649.672 1253.94 651.614 1255.67 653.03C1257.46 654.501 1259.69 655.333 1261.97 655.611C1265.93 656.11 1270.28 655.306 1273.12 652.447C1275.7 649.894 1276.78 646.147 1277.24 642.595Z" fill="#EFCAAC"/>
<path d="M1183.28 650.893C1183.28 650.893 1246.4 663.854 1262.39 659.108C1278.37 654.362 1280.33 639.07 1273.97 632.714C1267.61 626.359 1256.33 624.444 1244.64 628.024C1232.92 631.604 1183.14 637.793 1183.14 637.793L1183.28 650.893Z" fill="#EFCAAC"/>
<path d="M1057.61 827.792C1056.62 825.544 1055.63 823.768 1056.1 821.242C1056.34 819.966 1055.99 819.161 1054.61 819.494C1053.62 819.744 1052.68 820.132 1051.75 820.493C1050.59 820.965 1047.04 818.8 1045.86 819.91C1044.13 821.52 1041.04 827.431 1039.53 829.263C1037.88 831.289 1036.04 833.204 1034.11 834.98C1030.92 837.922 1026.65 841.613 1022.88 843.75C1021.4 844.611 1019.61 845.776 1018.43 847.053C1017.24 848.33 1017.46 848.552 1017.55 850.3C1017.79 856.35 1027.56 855.101 1031.36 854.408C1036.26 853.492 1040.8 851.16 1044.73 848.08C1046.66 846.553 1048.45 844.86 1050.1 843.029C1051.64 841.308 1052.9 838.866 1055.08 837.894C1055.88 837.534 1056.78 837.339 1057.44 836.729C1059.59 834.814 1058.79 830.706 1057.86 828.375C1057.75 828.153 1057.69 827.986 1057.61 827.792Z" fill="#EFCAAC"/>
<path d="M1006.84 852.493C1005.69 853.131 1004.5 853.769 1003.32 854.352C1001.12 855.462 999.055 857.349 999.386 860.097C999.743 863.067 1004.45 863.427 1006.7 863.788C1009.9 864.288 1013.14 864.288 1016.34 863.844C1020.38 863.289 1027.09 862.178 1030.7 860.264C1034.36 858.293 1035.68 855.99 1039.48 854.269C1042.75 852.798 1044.92 850.966 1048.34 849.801C1051.09 848.857 1054.23 847.941 1056.1 845.61C1057.14 844.305 1058.33 843.195 1058.74 841.558C1059.07 840.17 1059.1 838.672 1059.07 837.256C1059.07 836.646 1058.68 829.346 1058.11 829.374C1056.81 830.096 1055.55 830.901 1054.34 831.789C1052.22 833.343 1050.4 835.23 1048.39 836.951C1044.48 840.281 1039.97 842.779 1035.27 844.694C1032.16 845.971 1028.83 847.303 1025.44 847.58C1024.07 847.691 1022.47 847.608 1021.37 846.664C1020.46 845.86 1022.64 844.916 1022.86 843.778C1020.44 845.304 1017.74 846.498 1015.18 847.858C1012.4 849.329 1009.62 850.938 1006.84 852.493Z" fill="#DCC37E"/>
<path d="M1234.01 679.409L1141.97 662.115L1140.94 668.334L1232.98 685.628L1234.01 679.409Z" fill="#F5F8FC"/>
<path d="M1171.45 674.063L1073.58 655.665C1071.62 655.286 1070.1 653.609 1069.87 651.498L1056.49 535.537C1056.11 532.317 1058.78 529.611 1061.81 530.18L1159.67 548.578C1161.63 548.956 1163.16 550.634 1163.39 552.744L1176.76 668.706C1177.12 671.953 1174.45 674.631 1171.45 674.063Z" fill="#F5F8FC"/>
<path d="M1168.98 673.603L1071.11 655.205C1069.16 654.826 1067.63 653.149 1067.4 651.038L1054.03 535.077C1053.65 531.857 1056.31 529.151 1059.34 529.72L1157.21 548.118C1159.17 548.496 1160.69 550.174 1160.92 552.284L1174.29 668.246C1174.65 671.493 1171.98 674.171 1168.98 673.603Z" fill="#B4B8B7"/>
<path d="M1115.28 603.555C1115.76 609.048 1112.2 612.727 1107.3 611.807C1102.39 610.887 1098.01 605.693 1097.51 600.227C1097.02 594.735 1100.58 591.055 1105.49 591.975C1110.4 592.895 1114.8 598.063 1115.28 603.555Z" fill="#F5F8FC"/>
<defs>
<filter id="filter0_f_3_3" x="776.459" y="128.418" width="784.768" height="810.269" filterUnits="userSpaceOnUse" color-interpolation-filters="sRGB">
<feFlood flood-opacity="0" result="BackgroundImageFix"/>
<feBlend mode="normal" in="SourceGraphic" in2="BackgroundImageFix" result="shape"/>
<feGaussianBlur stdDeviation="0.5" result="effect1_foregroundBlur_3_3"/>
</filter>
<linearGradient id="paint0_linear_3_3" x1="1379.5" y1="866.5" x2="908.5" y2="343.5" gradientUnits="userSpaceOnUse">
<stop stop-color="#982EA2"/>
<stop offset="1" stop-color="#EBCDFE"/>
</linearGradient>
</defs>
</svg>
