<svg width="667" height="758" viewBox="0 0 667 758" fill="none" xmlns="http://www.w3.org/2000/svg">
<g clip-path="url(#clip0_54_5)">
<path d="M657.265 29.7792C693.18 35.0793 697.151 57.4563 694.647 67.9823L667.5 740C647.5 762 572.5 729.734 563 723.812C489.5 678 474.408 707.447 428.306 693.944C369.117 676.607 230 693.944 199 682.5C143.729 662.096 167.823 630.421 167 588.5C166.177 546.579 147.753 540.793 119.5 507C91.2472 473.207 113.179 426.781 159 407C189.53 393.82 214.5 389.662 214.5 345.5C214.5 303.5 192 270.44 192 229.5C192 185.092 228.534 137.465 285.256 140.977C354.224 145.248 350.858 158.284 417.5 179.5C484.143 200.716 516.742 166.34 550.262 108.174C570.965 79.8343 621.349 24.4791 657.265 29.7792Z" fill="url(#paint0_linear_54_5)"/>
<path d="M520.185 716.706C481.773 726.704 440.443 729.78 404.617 729.45C378.147 729.231 351.429 727.802 325.261 723.93C309.411 721.595 293.7 718.464 278.208 714.564C245.932 706.434 215.664 693.579 202.566 661.389C186.964 623.046 209.913 582.67 244.198 562.153C276.282 542.981 315.492 541.086 350.19 527.93C379.302 516.888 406.736 501.782 431.308 483.16C455.412 464.894 481.388 448.717 512.921 445.75C601.303 437.483 665.333 532.626 645.769 609.834C630.525 670.041 578.74 701.435 520.185 716.706Z" fill="#6988E7"/>
<path d="M305.917 617.36C305.917 617.36 396.005 577.891 468.592 609.752C468.592 609.78 403.627 585.472 305.917 617.36Z" fill="#003C6D"/>
<path d="M452.853 605.22C452.853 605.22 497.209 544.19 560.937 552.073C560.937 552.1 505.767 548.832 452.853 605.22Z" fill="#003C6D"/>
<path d="M285.39 554.572C266.569 599.974 240.236 681.494 237.512 693.799L247.252 698.249C247.252 698.249 289.985 626.342 315.96 572.672L285.39 554.572Z" fill="#EFCAAC"/>
<path d="M248.848 700.968C248.408 698.578 247.885 696.628 248.931 694.321C249.454 693.167 249.316 692.289 247.885 692.289C246.867 692.289 245.877 692.426 244.886 692.563C243.648 692.728 240.704 689.816 239.3 690.586C237.236 691.739 232.834 696.656 230.935 698.056C228.844 699.622 226.615 700.995 224.331 702.259C220.534 704.319 215.499 706.846 211.344 708.027C209.693 708.494 208.702 708.933 207.271 709.867C205.84 710.801 204.96 711.35 204.602 713.053C203.392 718.931 213.187 720.084 217.04 720.304C222.02 720.579 226.973 719.453 231.513 717.42C233.742 716.431 235.888 715.195 237.924 713.85C239.823 712.559 241.639 710.526 243.978 710.087C244.831 709.922 245.766 709.949 246.537 709.537C249.068 708.192 249.289 704.072 248.931 701.6C248.903 701.352 248.876 701.16 248.848 700.968Z" fill="#EFCAAC"/>
<path d="M193.678 712.531C192.385 712.861 191.119 713.19 189.799 713.493C187.377 714.042 184.956 715.36 184.598 718.052C184.213 720.991 188.725 722.474 190.844 723.353C193.816 724.589 196.98 725.385 200.172 725.715C204.217 726.154 211.013 726.704 214.976 725.688C218.993 724.671 220.837 722.776 224.909 722.035C228.459 721.403 230.99 720.167 234.567 719.837C237.457 719.59 240.731 719.453 243.097 717.667C244.418 716.679 245.849 715.882 246.619 714.399C247.28 713.135 247.665 711.707 247.968 710.334C248.105 709.757 249.481 702.643 248.903 702.533C247.472 702.918 246.069 703.385 244.666 703.934C242.244 704.923 240.016 706.296 237.677 707.477C233.109 709.73 228.129 711.075 223.093 711.79C219.764 712.284 216.214 712.751 212.885 712.229C211.536 712.009 209.995 711.542 209.17 710.361C208.455 709.373 210.793 708.988 211.289 707.944C208.565 708.823 205.648 709.345 202.869 710.032C199.842 710.828 196.76 711.735 193.678 712.531Z" fill="#EB81D3"/>
<path d="M440.416 411.527C440.416 411.527 426.41 408.286 414.276 421.003C402.141 433.748 353.107 513.647 353.107 513.647L382.632 526.529L440.416 411.527Z" fill="#EFCAAC"/>
<path d="M294.855 563.169C285.5 611.427 271.164 696.134 270.916 708.741L283.464 706.818C283.464 706.818 313.704 632.604 328.398 574.842L294.855 563.169Z" fill="#EFCAAC"/>
<path d="M461.136 548.804L391.767 522.409L385.384 535.428C385.384 535.428 294.25 544.904 280.327 546.634C274.796 547.321 258.892 561.631 241.309 579.292C244.693 581.16 247.858 583.494 250.747 586.186C256.47 591.514 261.203 597.749 266.128 603.792C271.246 610.054 276.612 616.042 283.243 620.739C289.325 625.051 312.878 630.901 319.95 633.016C333.433 611.18 343.449 604.176 343.449 604.176C343.449 604.176 419.614 621.645 440.416 606.538C461.218 591.432 461.136 548.804 461.136 548.804Z" fill="#DEBAD6"/>
<path d="M391.189 548.255C402.444 556.687 415.761 562.318 429.464 565.229C437.224 566.877 445.204 567.838 453.128 567.701C455.22 567.674 457.338 567.536 459.43 567.317C461.136 556.907 461.108 548.804 461.108 548.804L391.74 522.409L385.356 535.428C385.356 535.428 383.127 535.648 379.302 536.06C382.302 540.894 386.704 544.904 391.189 548.255Z" fill="#8A3526"/>
<path d="M392.4 545.673C398.013 549.189 404.205 551.688 410.451 553.803C417.027 556.028 423.741 557.896 430.538 559.241C440.801 561.274 451.615 561.988 461.851 559.791C464.465 544.437 463.117 537.461 466.336 523.81C471.289 502.688 493.77 439.049 492.889 429.518V429.49C491.073 427.101 489.175 424.739 487.083 422.569C484.084 419.465 480.727 416.773 476.737 415.07C471.812 412.955 466.501 411.774 461.273 410.868C457.586 410.209 453.899 409.797 450.184 409.467C448.286 409.302 446.304 409.028 444.406 409.138C442.48 409.248 440.636 409.852 438.93 410.703C435.463 412.434 432.601 415.125 429.822 417.79C426.52 420.921 423.081 423.887 419.641 426.853C414.716 431.083 409.818 435.395 405.223 439.982C402.334 444.267 399.637 448.689 397.408 452.919C394.409 458.66 389.346 512.658 384.531 539.411C386.842 541.773 389.511 543.888 392.4 545.673Z" fill="#23221E"/>
<path d="M395.565 386.176C394.739 389.252 392.648 391.587 390.804 394.059C389.071 396.366 388.19 398.783 387.998 401.667C387.86 403.507 387.722 405.842 388.548 407.627C388.988 407.38 389.429 407.133 389.869 406.913C389.869 406.007 390.171 405.045 390.447 404.249C390.887 402.985 391.465 401.694 392.098 400.513C392.648 399.497 393.336 398.646 394.106 397.849C393.336 400.156 393.418 402.93 393.693 405.402C396.693 404.523 399.857 404.249 402.994 404.606C407.644 405.155 412.074 406.885 416.312 408.808C418.816 409.934 421.292 410.978 424.016 411.472C426.328 411.912 428.667 411.967 431.005 411.747C436.068 411.253 440.746 409.412 445.644 408.204C450.955 406.885 456.375 407.38 461.686 408.369C467.079 409.357 472.5 410.758 478.031 410.126C480.259 409.852 482.461 409.357 484.607 408.698C482.983 406.638 481.387 404.468 480.81 401.887C480.397 400.156 480.562 398.481 480.865 396.833C481.443 398.234 482.323 399.552 483.341 400.843C484.992 402.958 486.863 405.183 487.304 407.819C489.395 407.078 491.431 406.199 493.412 405.292C494.155 404.963 494.87 404.606 495.613 404.249C495.448 403.864 495.311 403.48 495.173 403.095C494.843 402.161 494.65 401.172 494.513 400.184C495.201 401.365 495.971 402.546 496.631 403.754C498.695 402.738 500.759 401.694 502.823 400.733C502.768 400.623 502.685 400.513 502.63 400.403C501.364 398.343 500.016 396.201 499.713 393.756C499.356 390.708 500.979 388.153 502.025 385.434C501.887 386.753 501.474 388.016 501.254 389.389C500.952 391.175 501.254 392.96 501.997 394.608C502.575 395.899 503.483 396.998 504.143 398.234C504.419 398.755 504.694 399.277 504.996 399.827C506.07 399.387 507.143 398.975 508.243 398.618C510.445 397.904 512.646 397.41 514.957 397.327C517.131 397.217 519.277 397.327 521.451 397.382C521.644 397.382 521.836 397.382 522.001 397.41C521.919 396.503 522.029 395.542 522.111 394.69C522.249 393.042 522.167 391.559 521.699 389.966C520.708 386.533 518.479 383.704 516.636 380.71C514.517 377.249 513.526 373.569 513.141 369.559C512.783 365.686 512.921 361.731 511.71 357.968C510.555 354.397 508.436 351.266 506.29 348.217C503.896 344.811 501.419 341.378 499.631 337.615C497.787 333.77 497.319 329.65 496.631 325.503C496.054 321.987 495.173 318.499 493.742 315.23C490.743 308.364 485.487 303.255 479.654 298.75C479.434 298.586 478.966 298.915 479.186 299.107C483.919 302.925 488.239 307.402 491.101 312.758C486.781 308.638 481.112 306.606 475.086 305.946C471.399 305.562 467.684 305.562 463.997 305.699C460.255 305.837 456.458 305.947 452.716 306.276C444.653 307.018 436.701 308.721 428.832 310.643C421.65 312.401 414.468 314.543 407.919 317.977C404.92 319.542 401.205 321.355 400.352 324.926C400.16 325.777 400.105 326.684 400.187 327.59C400.187 327.617 400.16 327.645 400.16 327.672C400.27 330.913 401.811 333.852 402.086 337.066C402.389 340.637 401.976 343.932 400.297 347.119C397.711 351.98 393.473 355.825 391.547 361.017C390.612 363.543 390.502 366.208 391.189 368.79C391.96 371.646 393.446 374.2 394.574 376.92C395.812 379.776 396.418 382.99 395.565 386.176Z" fill="#151413"/>
<path d="M437.857 416.801C435.215 420.866 428.969 426.222 435.215 430.671C439.453 433.693 446.635 432.045 451.34 430.836C457.118 429.38 462.594 426.716 467.272 423.063C468.592 422.019 469.913 420.866 470.656 419.355C472.445 415.702 468.813 413.01 468.868 409.44C469.088 398.783 468.978 387.549 470.849 376.947C471.041 375.821 471.234 374.557 471.784 373.514C471.619 373.184 471.399 372.882 471.014 372.635C469.748 371.893 467.96 371.948 466.556 372.14C464.905 372.36 463.282 372.8 461.658 373.129C457.751 373.898 453.844 374.997 450.184 376.535C446.607 378.046 443.47 380.243 440.251 382.358C439.178 383.072 438.022 383.649 437.059 384.5C436.701 384.83 436.261 385.242 436.206 385.736C436.123 386.423 436.839 386.917 437.169 387.439C439.205 390.955 439.645 396.064 439.921 400.184C440.223 404.743 440.388 409.412 439.178 413.862C438.902 414.988 438.435 415.949 437.857 416.801Z" fill="#EFCAAC"/>
<path d="M478.306 316.466C472.775 307.073 464.025 299.519 453.624 296.059C443.8 292.79 432.656 293.312 423.328 297.926C414.633 302.239 408.552 310.259 405.498 319.35C405.14 320.421 404.837 321.492 404.535 322.591C404.067 323.717 403.654 324.843 403.352 326.052C401.811 332.094 403.187 338.302 404.48 344.262C405.195 347.503 405.828 350.772 405.911 354.123C405.993 357.501 405.525 360.824 405.085 364.148C404.287 370.245 403.654 376.151 406.048 381.973C409.763 391.037 417.275 399.195 426.658 402.436C436.151 405.732 446.717 403.562 455.715 399.662C465.318 395.514 473.848 388.703 479.571 379.941C485.653 370.602 487.111 359.698 486.671 348.739C486.258 337.56 484.029 326.189 478.306 316.466Z" fill="#EFCAAC"/>
<path d="M495.641 316.274C489.89 304.765 481.03 295.482 468.84 290.922C457.669 286.748 445.231 286.39 433.757 289.522C423.356 292.351 412.074 298.146 405.553 307.183C404.7 308.089 403.902 309.023 403.131 310.039C400.985 312.236 399.197 314.763 397.766 317.4C394.326 323.882 393.061 331.353 393.638 338.631C393.804 340.554 394.106 342.504 394.546 344.372C394.767 345.306 394.877 346.542 395.262 347.558C400.462 346.624 405.635 345.69 410.836 344.811C411.441 344.702 412.047 344.592 412.625 344.482C411.937 339.73 414.193 329.348 414.193 330.227C414.248 334.869 415.073 339.428 416.202 343.932C416.504 343.878 416.807 343.85 417.137 343.795C425.447 342.532 433.867 341.625 442.287 341.488C441.214 337.286 440.526 333.001 439.921 328.716C439.81 328.002 444.351 336.956 445.369 341.461C448.726 341.488 452.11 341.625 455.467 341.955C453.706 335.61 453.128 332.534 451.285 326.217C451.037 325.42 457.503 335.418 459.237 342.394C460.173 342.532 461.081 342.669 462.016 342.806C465.015 343.301 468.372 343.575 470.629 345.8C472.445 347.613 473.27 350.195 473.986 352.584C474.123 352.996 474.261 353.436 474.371 353.848C476.269 358.188 477.37 362.829 477.948 367.581C478.086 368.68 479.654 367.773 479.626 366.949C479.599 366.455 479.516 365.988 479.489 365.521C479.489 363.434 479.434 361.346 479.324 359.259C480.204 358.27 480.865 356.677 481.25 355.853C482.13 353.848 482.736 351.733 483.341 349.618C483.616 348.684 484.965 349.371 485.35 350.497C486.505 353.848 486.698 356.869 486.23 360.412C485.735 364.093 484.854 367.801 483.754 371.344C483.148 373.322 479.021 381.506 477.177 382.907C476.985 383.045 476.682 383.539 477.15 383.676C480.672 384.693 490.193 379.172 492.174 376.892C496.384 372.113 499.19 367.718 501.034 361.648C505.189 347.915 501.997 328.991 495.641 316.274Z" fill="#151413"/>
<path d="M493.247 351.733C492.642 349.288 490.743 346.624 487.936 346.652C484.497 346.707 482.323 350.387 481.278 353.244C481.03 353.958 480.672 354.864 480.425 355.853C479.874 357.007 479.379 358.188 479.021 359.424C478.278 362.17 478.141 365.137 478.003 367.993C477.893 370.19 477.728 373.431 480.122 374.475C482.323 375.436 484.635 374.036 486.285 372.662C490.165 369.449 492.009 364.889 493.027 360.055C493.632 357.364 493.935 354.452 493.247 351.733Z" fill="#EFCAAC"/>
<path d="M491.238 354.068C490.605 352.887 489.395 352.749 488.267 353.326C486.753 354.095 485.735 355.633 485.02 357.089C484.222 358.654 483.671 360.357 483.259 362.088C482.626 364.587 482.433 367.416 482.818 369.971C482.901 370.465 483.561 370.053 483.561 369.696C483.534 368.103 483.534 366.537 483.671 364.999C483.864 364.972 484.057 364.944 484.222 364.889C484.524 364.807 484.8 364.642 485.075 364.505C485.653 364.175 486.175 363.736 486.643 363.269C487.551 362.362 488.239 361.319 489.064 360.357C489.257 360.138 488.927 359.945 488.762 360.138C487.991 361.017 487.248 361.895 486.395 362.692C485.983 363.077 485.515 363.461 485.02 363.736C484.772 363.873 484.524 363.983 484.277 364.065C484.112 364.12 483.919 364.148 483.754 364.203C483.836 363.489 483.974 362.774 484.139 362.06C484.607 360.22 485.24 358.352 486.203 356.677C486.836 355.578 488.432 353.216 490.028 354.013C491.238 354.617 491.486 356.567 491.348 357.748C491.321 357.94 491.569 357.83 491.596 357.721C491.844 356.567 491.816 355.139 491.238 354.068Z" fill="#EFCAAC"/>
<path d="M416.559 528.836C416.312 527.161 415.871 525.485 415.101 523.975C414.331 522.519 413.23 521.255 411.964 520.212C410.258 518.783 408.387 517.547 406.598 516.229C404.782 514.883 402.939 513.537 401.068 512.219C399.444 511.093 397.848 509.857 396.087 508.895C395.427 508.538 394.712 508.264 393.969 508.209C392.263 507.687 390.529 507.22 388.823 506.808C386.539 506.259 384.255 505.764 381.944 505.407C380.018 505.105 378.092 504.858 376.138 504.94C374.184 505.023 372.423 505.49 370.635 506.231C369.204 506.836 367.663 507.138 366.287 507.879C365.764 508.154 365.214 508.566 365.049 509.17C364.911 509.719 365.214 510.186 365.599 510.516C366.067 510.901 366.617 511.175 367.223 511.367C370.222 511.944 373.359 511.23 376.358 510.955C377.321 510.873 378.339 510.955 379.302 511.065C380.761 511.23 382.192 511.505 383.595 511.862C384.558 512.109 385.494 512.411 386.429 512.741C386.126 512.741 385.796 512.713 385.494 512.741C383.953 512.768 382.467 513.125 380.953 513.345C379.468 513.537 378.037 513.73 376.633 514.251C376.633 514.251 376.606 514.251 376.606 514.279C375.615 514.444 374.652 514.691 373.689 515.103C371.928 515.817 370.305 516.806 368.736 517.877C368.131 518.289 367.525 518.674 366.92 519.058C365.93 519.498 364.967 519.937 364.031 520.431C363.068 520.953 362.022 521.64 361.444 522.601C360.757 523.727 361.692 524.579 362.738 524.963C364.471 525.568 366.095 524.826 367.553 523.947C369.452 522.821 371.433 521.887 373.524 521.118C373.992 520.953 374.487 520.816 374.982 520.679C377.927 519.36 385.466 520.926 384.475 521.008C384.283 521.008 384.118 521.008 383.925 521.036C383.788 521.036 383.678 521.008 383.567 520.981C381.504 520.898 379.468 520.953 377.514 521.448C377.349 521.557 377.211 521.667 377.046 521.777C374.845 523.398 372.478 524.744 370.195 526.227C369.011 526.968 367.828 527.682 366.645 528.397C365.875 528.864 361.362 531.39 363.591 532.517C364.224 532.819 365.022 532.846 365.709 532.846C366.673 532.819 367.608 532.599 368.489 532.242C370.442 531.5 372.203 530.347 373.937 529.193C374.872 528.561 375.78 527.875 376.799 527.38C378.092 526.749 379.523 526.556 380.953 526.529C383.21 526.501 385.411 526.859 387.585 527.38C386.787 527.408 385.989 527.408 385.163 527.463C381.669 527.655 379.165 529.303 376.248 531.033C374.872 531.857 373.249 532.269 371.901 533.148C371.103 533.67 370.167 534.631 370.69 535.675C371.048 536.444 372.066 536.527 372.809 536.472C375.313 536.279 377.486 534.961 379.77 534.055C382.412 533.011 385.246 532.764 388.025 532.379C391.189 531.94 393.253 533.368 395.977 534.714C397.298 535.373 398.674 535.977 400.05 536.554C402.856 537.68 405.746 538.669 408.69 539.301C409.818 539.548 411.001 539.63 412.129 539.273C412.982 538.999 413.698 538.532 414.276 537.9C416.697 535.675 417 531.802 416.559 528.836Z" fill="#EFCAAC"/>
<path d="M505.244 527.957C505.794 523.975 505.684 519.937 505.492 515.899C505.024 505.709 505.107 495.547 504.529 485.357C503.676 469.976 504.116 451.628 497.677 436.961C495.999 433.116 493.522 429.27 490.275 426.551C489.862 426.277 489.45 426.029 489.037 425.782C487.386 424.848 485.653 424.574 483.864 425.096C482.818 425.398 481.828 425.92 480.892 426.441C479.764 427.073 478.746 427.897 477.865 428.804C476.022 430.699 474.646 432.978 473.545 435.368C471.482 439.9 470.216 444.789 469.803 449.788C469.473 454.155 469.666 458.522 470.051 462.889C472.225 470.882 474.591 478.875 475.527 487.087C476.159 492.69 476.957 498.321 477.508 503.924C478.03 509.198 478.361 514.471 478.443 519.745C478.498 524.112 478.498 528.699 480.012 532.901C480.755 534.961 481.938 536.884 483.671 538.285C485.46 539.74 487.689 540.564 489.972 540.839C493.935 541.333 498.282 540.537 501.117 537.708C503.703 535.181 504.776 531.473 505.244 527.957Z" fill="#EFCAAC"/>
<path d="M411.276 536.17C411.276 536.17 474.398 548.996 490.385 544.3C506.372 539.603 508.326 524.469 501.97 518.179C495.613 511.889 484.332 509.994 472.637 513.537C460.915 517.08 411.139 523.205 411.139 523.205L411.276 536.17Z" fill="#EFCAAC"/>
<path d="M285.61 711.24C284.619 709.015 283.629 707.258 284.096 704.758C284.344 703.495 283.986 702.698 282.611 703.028C281.62 703.275 280.684 703.659 279.749 704.017C278.593 704.483 275.044 702.341 273.86 703.44C272.127 705.033 269.045 710.883 267.532 712.696C265.881 714.701 264.037 716.596 262.111 718.354C258.919 721.265 254.654 724.918 250.884 727.033C249.399 727.885 247.61 729.038 246.427 730.302C245.244 731.565 245.464 731.785 245.546 733.515C245.794 739.503 255.562 738.267 259.359 737.58C264.257 736.674 268.797 734.367 272.732 731.318C274.658 729.807 276.447 728.132 278.098 726.319C279.639 724.616 280.905 722.199 283.078 721.238C283.876 720.881 284.784 720.689 285.445 720.084C287.591 718.189 286.793 714.124 285.857 711.817C285.747 711.597 285.692 711.432 285.61 711.24Z" fill="#EFCAAC"/>
<path d="M234.843 735.685C233.687 736.317 232.504 736.949 231.32 737.526C229.119 738.624 227.055 740.492 227.386 743.211C227.743 746.15 232.449 746.507 234.705 746.864C237.897 747.359 241.144 747.359 244.336 746.919C248.38 746.37 255.094 745.271 258.699 743.376C262.359 741.426 263.68 739.146 267.477 737.443C270.751 735.987 272.925 734.175 276.337 733.021C279.089 732.087 282.225 731.181 284.097 728.874C285.142 727.583 286.325 726.484 286.738 724.864C287.068 723.49 287.096 722.007 287.068 720.606C287.068 720.002 286.683 712.778 286.105 712.806C284.812 713.52 283.546 714.317 282.335 715.195C280.217 716.734 278.401 718.601 276.392 720.304C272.485 723.6 267.972 726.072 263.267 727.967C260.157 729.231 256.828 730.549 253.443 730.824C252.068 730.934 250.472 730.851 249.371 729.917C248.463 729.121 250.637 728.187 250.857 727.061C248.436 728.571 245.739 729.753 243.18 731.098C240.401 732.554 237.622 734.147 234.843 735.685Z" fill="#EB81D3"/>
<path d="M462.012 564.391L369.972 547.276L368.94 553.43L460.98 570.546L462.012 564.391Z" fill="#F5F8FC"/>
<path d="M399.447 559.1L301.579 540.892C299.622 540.518 298.096 538.857 297.867 536.769L284.493 422.006C284.111 418.819 286.781 416.142 289.807 416.704L387.674 434.912C389.632 435.287 391.158 436.947 391.387 439.036L404.761 553.799C405.117 557.012 402.447 559.663 399.447 559.1Z" fill="#F5F8FC"/>
<path d="M396.981 558.645L299.113 540.437C297.155 540.062 295.63 538.402 295.401 536.314L282.026 421.551C281.645 418.364 284.315 415.687 287.341 416.249L385.208 434.457C387.166 434.832 388.691 436.492 388.92 438.58L402.295 553.343C402.651 556.556 399.981 559.207 396.981 558.645Z" fill="#B4B8B7"/>
<path d="M343.279 489.321C343.762 494.757 340.203 498.398 335.295 497.488C330.388 496.578 326.015 491.437 325.506 486.028C325.023 480.592 328.583 476.951 333.49 477.861C338.397 478.771 342.796 483.886 343.279 489.321Z" fill="#F5F8FC"/>
</g>
<defs>
<linearGradient id="paint0_linear_54_5" x1="192.221" y1="192.697" x2="667.241" y2="725.161" gradientUnits="userSpaceOnUse">
<stop stop-color="#626EE3"/>
<stop offset="0.4098" stop-color="#2F437A"/>
<stop offset="1" stop-color="#071E36"/>
</linearGradient>
<clipPath id="clip0_54_5">
<rect width="667" height="758" fill="white"/>
</clipPath>
</defs>
</svg>
