<svg width="184" height="66" viewBox="0 0 184 66" fill="none" xmlns="http://www.w3.org/2000/svg">
<circle cx="129" cy="35" r="31" fill="#EADDF4"/>
<path d="M19.072 44.3739C19.9467 44.3739 20.5653 44.2885 20.928 44.1179C21.2907 43.9472 21.472 43.6165 21.472 43.1259C21.472 42.7419 21.2373 42.4112 20.768 42.1339C20.2987 41.8352 19.584 41.5045 18.624 41.1419C17.8773 40.8645 17.1947 40.5765 16.576 40.2779C15.9787 39.9792 15.4667 39.6272 15.04 39.2219C14.6133 38.7952 14.2827 38.2939 14.048 37.7179C13.8133 37.1419 13.696 36.4485 13.696 35.6379C13.696 34.0592 14.2827 32.8112 15.456 31.8939C16.6293 30.9765 18.24 30.5179 20.288 30.5179C21.312 30.5179 22.2933 30.6139 23.232 30.8059C24.1707 30.9765 24.9173 31.1685 25.472 31.3819L24.64 35.0939C24.0853 34.9019 23.4773 34.7312 22.816 34.5819C22.176 34.4325 21.4507 34.3579 20.64 34.3579C19.1467 34.3579 18.4 34.7739 18.4 35.6059C18.4 35.7979 18.432 35.9685 18.496 36.1179C18.56 36.2672 18.688 36.4165 18.88 36.5659C19.072 36.6939 19.328 36.8432 19.648 37.0139C19.9893 37.1632 20.416 37.3339 20.928 37.5259C21.9733 37.9099 22.8373 38.2939 23.52 38.6779C24.2027 39.0405 24.736 39.4459 25.12 39.8939C25.5253 40.3205 25.8027 40.8005 25.952 41.3339C26.1227 41.8672 26.208 42.4859 26.208 43.1899C26.208 44.8539 25.5787 46.1125 24.32 46.9659C23.0827 47.8192 21.3227 48.2459 19.04 48.2459C17.5467 48.2459 16.2987 48.1179 15.296 47.8619C14.3147 47.6059 13.632 47.3925 13.248 47.2219L14.048 43.3499C14.8587 43.6699 15.6907 43.9259 16.544 44.1179C17.3973 44.2885 18.24 44.3739 19.072 44.3739ZM36.2033 44.4699C36.6726 44.4699 37.1206 44.4592 37.5473 44.4379C37.9739 44.4165 38.3153 44.3845 38.5713 44.3419V40.7259C38.3793 40.6832 38.0913 40.6405 37.7073 40.5979C37.3233 40.5552 36.9713 40.5339 36.6513 40.5339C36.2033 40.5339 35.7766 40.5659 35.3713 40.6299C34.9873 40.6725 34.6459 40.7685 34.3473 40.9179C34.0486 41.0672 33.8139 41.2699 33.6433 41.5259C33.4726 41.7819 33.3873 42.1019 33.3873 42.4859C33.3873 43.2325 33.6326 43.7552 34.1233 44.0539C34.6353 44.3312 35.3286 44.4699 36.2033 44.4699ZM35.8193 30.5179C37.2273 30.5179 38.4006 30.6779 39.3393 30.9979C40.2779 31.3179 41.0246 31.7765 41.5793 32.3739C42.1553 32.9712 42.5606 33.6965 42.7953 34.5499C43.0299 35.4032 43.1473 36.3525 43.1473 37.3979V47.3179C42.4646 47.4672 41.5153 47.6379 40.2993 47.8299C39.0833 48.0432 37.6113 48.1499 35.8833 48.1499C34.7953 48.1499 33.8033 48.0539 32.9073 47.8619C32.0326 47.6699 31.2753 47.3605 30.6353 46.9339C29.9953 46.4859 29.5046 45.9099 29.1633 45.2059C28.8219 44.5019 28.6513 43.6379 28.6513 42.6139C28.6513 41.6325 28.8433 40.8005 29.2273 40.1179C29.6326 39.4352 30.1659 38.8912 30.8273 38.4859C31.4886 38.0805 32.2459 37.7925 33.0993 37.6219C33.9526 37.4299 34.8379 37.3339 35.7552 37.3339C36.3739 37.3339 36.9179 37.3659 37.3873 37.4299C37.8779 37.4725 38.2726 37.5365 38.5713 37.6219V37.1739C38.5713 36.3632 38.3259 35.7125 37.8353 35.2219C37.3446 34.7312 36.4913 34.4859 35.2753 34.4859C34.4646 34.4859 33.6646 34.5499 32.8753 34.6779C32.0859 34.7845 31.4033 34.9445 30.8273 35.1579L30.2193 31.3179C30.4966 31.2325 30.8379 31.1472 31.2433 31.0619C31.6699 30.9552 32.1286 30.8699 32.6193 30.8059C33.1099 30.7205 33.6219 30.6565 34.1553 30.6139C34.7099 30.5499 35.2646 30.5179 35.8193 30.5179ZM47.4588 31.5419C48.2694 31.3072 49.3148 31.0939 50.5948 30.9019C51.8748 30.6885 53.2188 30.5819 54.6267 30.5819C56.0561 30.5819 57.2401 30.7739 58.1788 31.1579C59.1388 31.5205 59.8961 32.0432 60.4508 32.7259C61.0054 33.4085 61.4001 34.2192 61.6348 35.1579C61.8694 36.0965 61.9868 37.1419 61.9868 38.2939V47.7979H57.2188V38.8699C57.2188 37.3339 57.0161 36.2459 56.6108 35.6059C56.2054 34.9659 55.4481 34.6459 54.3388 34.6459C53.9974 34.6459 53.6348 34.6672 53.2508 34.7099C52.8668 34.7312 52.5254 34.7632 52.2268 34.8059V47.7979H47.4588V31.5419ZM72.7345 44.4699C73.2038 44.4699 73.6518 44.4592 74.0785 44.4379C74.5052 44.4165 74.8465 44.3845 75.1025 44.3419V40.7259C74.9105 40.6832 74.6225 40.6405 74.2385 40.5979C73.8545 40.5552 73.5025 40.5339 73.1825 40.5339C72.7345 40.5339 72.3078 40.5659 71.9025 40.6299C71.5185 40.6725 71.1772 40.7685 70.8785 40.9179C70.5798 41.0672 70.3452 41.2699 70.1745 41.5259C70.0038 41.7819 69.9185 42.1019 69.9185 42.4859C69.9185 43.2325 70.1638 43.7552 70.6545 44.0539C71.1665 44.3312 71.8598 44.4699 72.7345 44.4699ZM72.3505 30.5179C73.7585 30.5179 74.9318 30.6779 75.8705 30.9979C76.8092 31.3179 77.5558 31.7765 78.1105 32.3739C78.6865 32.9712 79.0918 33.6965 79.3265 34.5499C79.5612 35.4032 79.6785 36.3525 79.6785 37.3979V47.3179C78.9958 47.4672 78.0465 47.6379 76.8305 47.8299C75.6145 48.0432 74.1425 48.1499 72.4145 48.1499C71.3265 48.1499 70.3345 48.0539 69.4385 47.8619C68.5638 47.6699 67.8065 47.3605 67.1665 46.9339C66.5265 46.4859 66.0358 45.9099 65.6945 45.2059C65.3532 44.5019 65.1825 43.6379 65.1825 42.6139C65.1825 41.6325 65.3745 40.8005 65.7585 40.1179C66.1638 39.4352 66.6972 38.8912 67.3585 38.4859C68.0198 38.0805 68.7772 37.7925 69.6305 37.6219C70.4838 37.4299 71.3692 37.3339 72.2865 37.3339C72.9052 37.3339 73.4492 37.3659 73.9185 37.4299C74.4092 37.4725 74.8038 37.5365 75.1025 37.6219V37.1739C75.1025 36.3632 74.8572 35.7125 74.3665 35.2219C73.8758 34.7312 73.0225 34.4859 71.8065 34.4859C70.9958 34.4859 70.1958 34.5499 69.4065 34.6779C68.6172 34.7845 67.9345 34.9445 67.3585 35.1579L66.7505 31.3179C67.0278 31.2325 67.3692 31.1472 67.7745 31.0619C68.2012 30.9552 68.6598 30.8699 69.1505 30.8059C69.6412 30.7205 70.1532 30.6565 70.6865 30.6139C71.2412 30.5499 71.7958 30.5179 72.3505 30.5179ZM83.99 31.5419C84.8007 31.3072 85.846 31.0939 87.126 30.9019C88.406 30.6885 89.75 30.5819 91.158 30.5819C92.5873 30.5819 93.7713 30.7739 94.71 31.1579C95.67 31.5205 96.4273 32.0432 96.982 32.7259C97.5367 33.4085 97.9313 34.2192 98.166 35.1579C98.4007 36.0965 98.518 37.1419 98.518 38.2939V47.7979H93.75V38.8699C93.75 37.3339 93.5473 36.2459 93.142 35.6059C92.7367 34.9659 91.9793 34.6459 90.87 34.6459C90.5287 34.6459 90.166 34.6672 89.782 34.7099C89.398 34.7312 89.0567 34.7632 88.758 34.8059V47.7979H83.99V31.5419ZM106.898 39.2539C106.898 40.7259 107.228 41.9099 107.89 42.8059C108.551 43.7019 109.532 44.1499 110.834 44.1499C111.26 44.1499 111.655 44.1392 112.018 44.1179C112.38 44.0752 112.679 44.0325 112.914 43.9899V35.3179C112.615 35.1259 112.22 34.9659 111.73 34.8379C111.26 34.7099 110.78 34.6459 110.29 34.6459C108.028 34.6459 106.898 36.1819 106.898 39.2539ZM117.682 47.2539C117.255 47.3819 116.764 47.5099 116.21 47.6379C115.655 47.7445 115.068 47.8405 114.45 47.9259C113.852 48.0112 113.234 48.0752 112.594 48.1179C111.975 48.1819 111.378 48.2139 110.802 48.2139C109.415 48.2139 108.178 48.0112 107.09 47.6059C106.002 47.2005 105.084 46.6245 104.338 45.8779C103.591 45.1099 103.015 44.1925 102.61 43.1259C102.226 42.0379 102.034 40.8219 102.034 39.4779C102.034 38.1125 102.204 36.8859 102.546 35.7979C102.887 34.6885 103.378 33.7499 104.018 32.9819C104.658 32.2139 105.436 31.6272 106.354 31.2219C107.292 30.8165 108.359 30.6139 109.554 30.6139C110.215 30.6139 110.802 30.6779 111.314 30.8059C111.847 30.9339 112.38 31.1152 112.914 31.3499V23.7339L117.682 22.9659V47.2539Z" fill="#5275DC"/>
<path d="M137.314 47.7979C137.08 47.0299 136.813 46.2405 136.514 45.4299C136.237 44.6192 135.96 43.8085 135.682 42.9979H127.042C126.765 43.8085 126.477 44.6192 126.178 45.4299C125.901 46.2405 125.645 47.0299 125.41 47.7979H120.226C121.058 45.4085 121.848 43.2005 122.594 41.1739C123.341 39.1472 124.066 37.2379 124.77 35.4459C125.496 33.6539 126.2 31.9579 126.882 30.3579C127.586 28.7365 128.312 27.1579 129.058 25.6219H133.826C134.552 27.1579 135.266 28.7365 135.97 30.3579C136.674 31.9579 137.378 33.6539 138.082 35.4459C138.808 37.2379 139.544 39.1472 140.29 41.1739C141.037 43.2005 141.826 45.4085 142.658 47.7979H137.314ZM131.33 30.6459C131.224 30.9659 131.064 31.4032 130.85 31.9579C130.637 32.5125 130.392 33.1525 130.114 33.8779C129.837 34.6032 129.528 35.4032 129.186 36.2779C128.866 37.1525 128.536 38.0699 128.194 39.0299H134.498C134.157 38.0699 133.826 37.1525 133.506 36.2779C133.186 35.4032 132.877 34.6032 132.578 33.8779C132.301 33.1525 132.056 32.5125 131.842 31.9579C131.629 31.4032 131.458 30.9659 131.33 30.6459Z" fill="#214ED3"/>
</svg>
