<svg width="24" height="19" viewBox="0 0 24 19" fill="none" xmlns="http://www.w3.org/2000/svg">
<path d="M1.8 18.427C1.32 18.427 0.9 18.2543 0.54 17.9088C0.18 17.5633 0 17.1602 0 16.6995V1.72754C0 1.26686 0.18 0.863768 0.54 0.51826C0.9 0.172753 1.32 0 1.8 0H22.2C22.68 0 23.1 0.172753 23.46 0.51826C23.82 0.863768 24 1.26686 24 1.72754V16.6995C24 17.1602 23.82 17.5633 23.46 17.9088C23.1 18.2543 22.68 18.427 22.2 18.427H1.8ZM12 9.73178L1.8 3.31111V16.6995H22.2V3.31111L12 9.73178ZM12 8.00425L22.08 1.72754H1.95L12 8.00425ZM1.8 3.31111V1.72754V3.31111V16.6995V3.31111Z" fill="#5275DC"/>
</svg>
